<?xml version="1.0" encoding="UTF-8"?><svg xmlns="http://www.w3.org/2000/svg" xmlns:xlink="http://www.w3.org/1999/xlink" height="1239.6" preserveAspectRatio="xMidYMid meet" version="1.0" viewBox="705.0 606.5 1042.4 1239.6" width="1042.4" zoomAndPan="magnify"><g fill="#8a2be2" id="change1_1"><path d="M 1555.6875 1775.867188 L 896.820312 1775.867188 L 814.332031 1024.207031 L 1638.210938 1024.207031 Z M 1677.367188 954.035156 L 775.183594 954.035156 C 765.21875 954.035156 755.714844 958.28125 749.054688 965.710938 C 742.414062 973.132812 739.222656 983.042969 740.308594 992.957031 L 830.507812 1814.789062 C 832.457031 1832.558594 847.484375 1846.039062 865.382812 1846.039062 L 1587.128906 1846.039062 C 1605.027344 1846.039062 1620.058594 1832.558594 1622.003906 1814.789062 L 1712.242188 992.957031 C 1713.324219 983.042969 1710.152344 973.132812 1703.496094 965.710938 C 1696.832031 958.28125 1687.332031 954.035156 1677.367188 954.035156" fill="inherit"/><path d="M 998.695312 1658.359375 C 1000.550781 1676.421875 1015.78125 1689.878906 1033.550781 1689.878906 C 1034.75 1689.878906 1035.960938 1689.808594 1037.171875 1689.699219 C 1056.449219 1687.730469 1070.46875 1670.511719 1068.488281 1651.230469 L 1020.339844 1180.710938 C 1018.371094 1161.429688 1001.140625 1147.699219 981.863281 1149.371094 C 962.585938 1151.328125 948.5625 1168.558594 950.539062 1187.828125 L 998.695312 1658.359375" fill="inherit"/><path d="M 1226.269531 1689.878906 C 1245.648438 1689.878906 1261.351562 1674.160156 1261.351562 1654.800781 L 1261.351562 1184.269531 C 1261.351562 1164.898438 1245.648438 1149.191406 1226.269531 1149.191406 C 1206.890625 1149.191406 1191.191406 1164.898438 1191.191406 1184.269531 L 1191.191406 1654.800781 C 1191.191406 1674.160156 1206.890625 1689.878906 1226.269531 1689.878906" fill="inherit"/><path d="M 1415.328125 1689.699219 C 1416.550781 1689.808594 1417.75 1689.878906 1418.949219 1689.878906 C 1436.71875 1689.878906 1451.949219 1676.421875 1453.800781 1658.359375 L 1501.96875 1187.828125 C 1503.949219 1168.578125 1489.929688 1151.328125 1470.648438 1149.371094 C 1451.148438 1147.519531 1434.140625 1161.410156 1432.179688 1180.710938 L 1384.011719 1651.230469 C 1382.03125 1670.488281 1396.058594 1687.730469 1415.328125 1689.699219" fill="inherit"/><path d="M 1226.269531 676.621094 C 1282.988281 676.621094 1330.460938 714.808594 1345.742188 766.636719 L 1106.761719 766.636719 C 1122.042969 714.808594 1169.539062 676.621094 1226.269531 676.621094 Z M 1712.390625 766.636719 L 1418.210938 766.636719 C 1401.609375 675.691406 1321.957031 606.460938 1226.269531 606.460938 C 1130.574219 606.460938 1050.902344 675.691406 1034.292969 766.636719 L 740.125 766.636719 C 720.746094 766.636719 705.042969 782.34375 705.042969 801.722656 C 705.042969 821.085938 720.746094 836.796875 740.125 836.796875 L 1712.390625 836.796875 C 1731.765625 836.796875 1747.464844 821.085938 1747.464844 801.722656 C 1747.464844 782.34375 1731.765625 766.636719 1712.390625 766.636719" fill="inherit"/></g></svg>